<svg width="92" height="32" viewBox="0 0 92 32" fill="none" xmlns="http://www.w3.org/2000/svg">
<path fill-rule="evenodd" clip-rule="evenodd" d="M89.395 12.7998C87.9421 14.2528 86.1547 14.9792 84.0329 14.9792C81.9112 14.9792 80.1123 14.2528 78.6362 12.7998C77.1833 11.3469 76.4568 9.57103 76.4568 7.47232C76.4568 5.37361 77.1833 3.60932 78.6362 2.17943C80.1123 0.726474 81.9112 0 84.0329 0C86.1547 0 87.9421 0.726474 89.395 2.17943C90.871 3.60932 91.609 5.37361 91.609 7.47232C91.609 9.57103 90.871 11.3469 89.395 12.7998ZM79.8124 3.21725C78.7054 4.34732 78.1519 5.76568 78.1519 7.47232C78.1519 9.17897 78.7054 10.6089 79.8124 11.762C80.9425 12.8921 82.3493 13.4571 84.0329 13.4571C85.7165 13.4571 87.1118 12.8921 88.2188 11.762C89.3489 10.6089 89.9139 9.17897 89.9139 7.47232C89.9139 5.76568 89.3489 4.34732 88.2188 3.21725C87.1118 2.08717 85.7165 1.52214 84.0329 1.52214C82.3493 1.52214 80.9425 2.08717 79.8124 3.21725ZM81.3692 10.8971V3.80535H84.8978C85.6358 3.80535 86.2354 4.00138 86.6967 4.39345C87.1579 4.78551 87.3886 5.2929 87.3886 5.91559C87.3886 6.35378 87.2502 6.73432 86.9734 7.05719C86.6967 7.38007 86.3277 7.58764 85.8664 7.67989C86.6044 7.84133 86.9965 8.32564 87.0426 9.13284L87.1118 10.1361C87.1579 10.5743 87.204 10.828 87.2502 10.8971H85.5897C85.5435 10.828 85.4974 10.5973 85.4513 10.2053L85.3821 9.23662C85.336 8.61393 85.0362 8.30258 84.4827 8.30258H83.0297V10.8971H81.3692ZM83.0297 7.19557H84.5864C85.3244 7.19557 85.6934 6.81504 85.6934 6.05397C85.6934 5.75415 85.5897 5.51199 85.3821 5.32749C85.1745 5.14299 84.9093 5.05074 84.5864 5.05074H83.0297V7.19557ZM56.7427 27.2256C59.4411 27.9174 61.2861 27.2486 62.2778 25.2191L62.5545 24.5964L55.3936 7.36854H61.067L65.495 18.6116L69.6117 7.36854H75.0084L67.9166 25.0115C66.8096 27.8252 65.2759 29.7855 63.3156 30.8925C61.3553 32.0226 59.1643 32.2878 56.7427 31.6882V27.2256ZM40.9986 22.9013C42.7283 24.6771 44.9308 25.565 47.6061 25.565C49.7509 25.565 51.5844 25 53.1066 23.8699C54.6518 22.7399 55.5974 21.333 55.9433 19.6494L51.4115 18.9922C51.1578 19.7071 50.685 20.2952 49.9931 20.7565C49.3012 21.1946 48.5286 21.4137 47.6753 21.4137C46.6144 21.4137 45.7265 21.0793 45.0116 20.4105C44.2966 19.7417 43.893 18.8884 43.8008 17.8505H56.2546C56.7159 14.7832 56.1278 12.1656 54.4903 9.99769C52.8529 7.80673 50.5466 6.71125 47.5715 6.71125C44.9193 6.71125 42.7283 7.59917 40.9986 9.375C39.2689 11.1508 38.4041 13.411 38.4041 16.1554C38.4041 18.8768 39.2689 21.1255 40.9986 22.9013ZM51.1001 13.8722H43.8354C43.9737 12.9267 44.3773 12.1656 45.0462 11.589C45.738 10.9894 46.5798 10.6896 47.5715 10.6896C48.5863 10.6896 49.4281 11.0009 50.0969 11.6236C50.7657 12.2463 51.1001 12.9958 51.1001 13.8722ZM28.1753 25.4267C25.4539 25.4267 23.2053 24.5618 21.4294 22.8321C19.6767 21.0793 18.8003 18.8538 18.8003 16.1554C18.8003 13.434 19.6767 11.2085 21.4294 9.47878C23.2053 7.72601 25.4539 6.84963 28.1753 6.84963C30.9198 6.84963 33.1684 7.72601 34.9211 9.47878C36.697 11.2085 37.5849 13.434 37.5849 16.1554C37.5849 18.8538 36.697 21.0793 34.9211 22.8321C33.1684 24.5618 30.9198 25.4267 28.1753 25.4267ZM25.2694 12.696C24.5314 13.5955 24.1624 14.7486 24.1624 16.1554C24.1624 17.5623 24.5314 18.7154 25.2694 19.6149C26.0305 20.4912 26.9991 20.9294 28.1753 20.9294C29.3746 20.9294 30.3432 20.4912 31.0812 19.6149C31.8423 18.7154 32.2228 17.5623 32.2228 16.1554C32.2228 14.7486 31.8423 13.5955 31.0812 12.696C30.3432 11.7966 29.3746 11.3469 28.1753 11.3469C26.9991 11.3469 26.0305 11.7966 25.2694 12.696ZM2.38698 23.0397C3.9783 24.6079 6.04242 25.3921 8.57932 25.3921C11.2085 25.3921 13.3418 24.5964 14.9792 23.0051C16.6167 21.4137 17.4354 19.3266 17.4354 16.7435V0.69188H11.8312V16.7435C11.8312 17.8736 11.5429 18.7615 10.9663 19.4073C10.3897 20.053 9.60561 20.3759 8.61392 20.3759C7.59915 20.3759 6.79196 20.0415 6.19233 19.3727C5.61576 18.7039 5.32747 17.7698 5.32747 16.5706L-1.78137e-05 16.9165C-1.78137e-05 19.4304 0.795647 21.4714 2.38698 23.0397Z" fill="white"/>
</svg>
